<svg xmlns="http://www.w3.org/2000/svg" viewBox="0 0 512 512" role="img" aria-labelledby="title">
  <title id="title">Kanban</title>
  <rect x="32" y="32" width="448" height="448" rx="112" fill="#FFFFFF"/>
  <g shape-rendering="crispEdges">
    <rect x="88" y="88" width="336" height="24" fill="#1B1533"/>
    <rect x="64" y="112" width="24" height="24" fill="#1B1533"/>
    <rect x="88" y="112" width="336" height="24" fill="#7C6FE0"/>
    <rect x="424" y="112" width="24" height="24" fill="#1B1533"/>
    <rect x="64" y="136" width="24" height="24" fill="#1B1533"/>
    <rect x="88" y="136" width="336" height="24" fill="#7C6FE0"/>
    <rect x="424" y="136" width="24" height="24" fill="#1B1533"/>
    <rect x="64" y="160" width="24" height="24" fill="#1B1533"/>
    <rect x="88" y="160" width="96" height="24" fill="#E7E4FB"/>
    <rect x="184" y="160" width="24" height="24" fill="#CFC9F5"/>
    <rect x="208" y="160" width="96" height="24" fill="#E7E4FB"/>
    <rect x="304" y="160" width="24" height="24" fill="#CFC9F5"/>
    <rect x="328" y="160" width="96" height="24" fill="#E7E4FB"/>
    <rect x="424" y="160" width="24" height="24" fill="#1B1533"/>
    <rect x="64" y="184" width="24" height="24" fill="#1B1533"/>
    <rect x="88" y="184" width="96" height="24" fill="#FFFFFF"/>
    <rect x="184" y="184" width="24" height="24" fill="#CFC9F5"/>
    <rect x="208" y="184" width="96" height="24" fill="#F5C451"/>
    <rect x="304" y="184" width="24" height="24" fill="#CFC9F5"/>
    <rect x="328" y="184" width="96" height="24" fill="#6CD39B"/>
    <rect x="424" y="184" width="24" height="24" fill="#1B1533"/>
    <rect x="64" y="208" width="24" height="24" fill="#1B1533"/>
    <rect x="88" y="208" width="96" height="24" fill="#FFFFFF"/>
    <rect x="184" y="208" width="24" height="24" fill="#CFC9F5"/>
    <rect x="208" y="208" width="96" height="24" fill="#F5C451"/>
    <rect x="304" y="208" width="24" height="24" fill="#CFC9F5"/>
    <rect x="328" y="208" width="96" height="24" fill="#6CD39B"/>
    <rect x="424" y="208" width="24" height="24" fill="#1B1533"/>
    <rect x="64" y="232" width="24" height="24" fill="#1B1533"/>
    <rect x="88" y="232" width="96" height="24" fill="#E7E4FB"/>
    <rect x="184" y="232" width="24" height="24" fill="#CFC9F5"/>
    <rect x="208" y="232" width="96" height="24" fill="#E7E4FB"/>
    <rect x="304" y="232" width="24" height="24" fill="#CFC9F5"/>
    <rect x="328" y="232" width="96" height="24" fill="#E7E4FB"/>
    <rect x="424" y="232" width="24" height="24" fill="#1B1533"/>
    <rect x="64" y="256" width="24" height="24" fill="#1B1533"/>
    <rect x="88" y="256" width="96" height="24" fill="#F06B6B"/>
    <rect x="184" y="256" width="24" height="24" fill="#CFC9F5"/>
    <rect x="208" y="256" width="96" height="24" fill="#FFFFFF"/>
    <rect x="304" y="256" width="24" height="24" fill="#CFC9F5"/>
    <rect x="328" y="256" width="96" height="24" fill="#E7E4FB"/>
    <rect x="424" y="256" width="24" height="24" fill="#1B1533"/>
    <rect x="64" y="280" width="24" height="24" fill="#1B1533"/>
    <rect x="88" y="280" width="96" height="24" fill="#F06B6B"/>
    <rect x="184" y="280" width="24" height="24" fill="#CFC9F5"/>
    <rect x="208" y="280" width="96" height="24" fill="#FFFFFF"/>
    <rect x="304" y="280" width="24" height="24" fill="#CFC9F5"/>
    <rect x="328" y="280" width="96" height="24" fill="#E7E4FB"/>
    <rect x="424" y="280" width="24" height="24" fill="#1B1533"/>
    <rect x="64" y="304" width="24" height="24" fill="#1B1533"/>
    <rect x="88" y="304" width="96" height="24" fill="#E7E4FB"/>
    <rect x="184" y="304" width="24" height="24" fill="#CFC9F5"/>
    <rect x="208" y="304" width="96" height="24" fill="#E7E4FB"/>
    <rect x="304" y="304" width="24" height="24" fill="#CFC9F5"/>
    <rect x="328" y="304" width="96" height="24" fill="#E7E4FB"/>
    <rect x="424" y="304" width="24" height="24" fill="#1B1533"/>
    <rect x="64" y="328" width="24" height="24" fill="#1B1533"/>
    <rect x="88" y="328" width="96" height="24" fill="#FFFFFF"/>
    <rect x="184" y="328" width="24" height="24" fill="#CFC9F5"/>
    <rect x="208" y="328" width="96" height="24" fill="#E7E4FB"/>
    <rect x="304" y="328" width="24" height="24" fill="#CFC9F5"/>
    <rect x="328" y="328" width="96" height="24" fill="#E7E4FB"/>
    <rect x="424" y="328" width="24" height="24" fill="#1B1533"/>
    <rect x="64" y="352" width="24" height="24" fill="#1B1533"/>
    <rect x="88" y="352" width="96" height="24" fill="#FFFFFF"/>
    <rect x="184" y="352" width="24" height="24" fill="#CFC9F5"/>
    <rect x="208" y="352" width="96" height="24" fill="#E7E4FB"/>
    <rect x="304" y="352" width="24" height="24" fill="#CFC9F5"/>
    <rect x="328" y="352" width="96" height="24" fill="#E7E4FB"/>
    <rect x="424" y="352" width="24" height="24" fill="#1B1533"/>
    <rect x="64" y="376" width="24" height="24" fill="#1B1533"/>
    <rect x="88" y="376" width="96" height="24" fill="#E7E4FB"/>
    <rect x="184" y="376" width="24" height="24" fill="#CFC9F5"/>
    <rect x="208" y="376" width="96" height="24" fill="#E7E4FB"/>
    <rect x="304" y="376" width="24" height="24" fill="#CFC9F5"/>
    <rect x="328" y="376" width="96" height="24" fill="#E7E4FB"/>
    <rect x="424" y="376" width="24" height="24" fill="#1B1533"/>
    <rect x="88" y="400" width="336" height="24" fill="#1B1533"/>
  </g>
</svg>
